<mxfile host="app.diagrams.net" agent="Mozilla/5.0 (Windows NT 10.0; Win64; x64; rv:139.0) Gecko/20100101 Firefox/139.0" version="27.1.6">
  <diagram name="Seite-1" id="vKhFG0yD0sFM96mjJ53Z">
    <mxGraphModel dx="1375" dy="751" grid="1" gridSize="10" guides="1" tooltips="1" connect="1" arrows="1" fold="1" page="1" pageScale="1" pageWidth="827" pageHeight="1169" math="0" shadow="0">
      <root>
        <mxCell id="0" />
        <mxCell id="1" parent="0" />
        <mxCell id="saFJeLpI3H_wUORphgzt-27" value="tick10ms" style="ellipse;whiteSpace=wrap;html=1;" parent="1" vertex="1">
          <mxGeometry x="176" y="40" width="120" height="80" as="geometry" />
        </mxCell>
        <mxCell id="saFJeLpI3H_wUORphgzt-28" value="++ticks &amp;gt;=&lt;div&gt;ONESEC&lt;/div&gt;" style="rhombus;whiteSpace=wrap;html=1;" parent="1" vertex="1">
          <mxGeometry x="196" y="260" width="80" height="80" as="geometry" />
        </mxCell>
        <mxCell id="saFJeLpI3H_wUORphgzt-29" value="" style="endArrow=classic;html=1;rounded=0;exitX=0.5;exitY=1;exitDx=0;exitDy=0;" parent="1" source="saFJeLpI3H_wUORphgzt-27" target="saFJeLpI3H_wUORphgzt-28" edge="1">
          <mxGeometry width="50" height="50" relative="1" as="geometry">
            <mxPoint x="486" y="200" as="sourcePoint" />
            <mxPoint x="236" y="160" as="targetPoint" />
            <Array as="points">
              <mxPoint x="236" y="150" />
            </Array>
          </mxGeometry>
        </mxCell>
        <mxCell id="saFJeLpI3H_wUORphgzt-30" value="" style="endArrow=classic;html=1;rounded=0;exitX=1;exitY=0.5;exitDx=0;exitDy=0;entryX=0;entryY=0.5;entryDx=0;entryDy=0;" parent="1" source="saFJeLpI3H_wUORphgzt-28" target="saFJeLpI3H_wUORphgzt-31" edge="1">
          <mxGeometry width="50" height="50" relative="1" as="geometry">
            <mxPoint x="486" y="280" as="sourcePoint" />
            <mxPoint x="376" y="300" as="targetPoint" />
          </mxGeometry>
        </mxCell>
        <mxCell id="saFJeLpI3H_wUORphgzt-31" value="setLED()" style="rounded=0;whiteSpace=wrap;html=1;" parent="1" vertex="1">
          <mxGeometry x="376" y="270" width="120" height="60" as="geometry" />
        </mxCell>
        <mxCell id="saFJeLpI3H_wUORphgzt-32" value="Yes" style="text;html=1;align=center;verticalAlign=middle;whiteSpace=wrap;rounded=0;" parent="1" vertex="1">
          <mxGeometry x="276" y="270" width="60" height="30" as="geometry" />
        </mxCell>
        <mxCell id="saFJeLpI3H_wUORphgzt-33" value="No" style="text;html=1;align=center;verticalAlign=middle;whiteSpace=wrap;rounded=0;" parent="1" vertex="1">
          <mxGeometry x="176" y="340" width="60" height="30" as="geometry" />
        </mxCell>
        <mxCell id="saFJeLpI3H_wUORphgzt-34" value="" style="endArrow=classic;html=1;rounded=0;exitX=0.5;exitY=1;exitDx=0;exitDy=0;" parent="1" source="saFJeLpI3H_wUORphgzt-28" target="saFJeLpI3H_wUORphgzt-37" edge="1">
          <mxGeometry width="50" height="50" relative="1" as="geometry">
            <mxPoint x="486" y="390" as="sourcePoint" />
            <mxPoint x="236" y="380" as="targetPoint" />
          </mxGeometry>
        </mxCell>
        <mxCell id="saFJeLpI3H_wUORphgzt-35" value="" style="endArrow=classic;html=1;rounded=0;exitX=1;exitY=0.5;exitDx=0;exitDy=0;" parent="1" source="saFJeLpI3H_wUORphgzt-31" edge="1">
          <mxGeometry width="50" height="50" relative="1" as="geometry">
            <mxPoint x="436" y="380" as="sourcePoint" />
            <mxPoint x="236" y="500" as="targetPoint" />
            <Array as="points">
              <mxPoint x="536" y="300" />
              <mxPoint x="536" y="500" />
            </Array>
          </mxGeometry>
        </mxCell>
        <mxCell id="saFJeLpI3H_wUORphgzt-36" value="clrLED()" style="rounded=0;whiteSpace=wrap;html=1;" parent="1" vertex="1">
          <mxGeometry x="376" y="390" width="120" height="60" as="geometry" />
        </mxCell>
        <mxCell id="saFJeLpI3H_wUORphgzt-37" value="ticks ==&lt;div&gt;MSEC200&lt;/div&gt;" style="rhombus;whiteSpace=wrap;html=1;" parent="1" vertex="1">
          <mxGeometry x="196" y="380" width="80" height="80" as="geometry" />
        </mxCell>
        <mxCell id="saFJeLpI3H_wUORphgzt-38" value="" style="endArrow=classic;html=1;rounded=0;exitX=1;exitY=0.5;exitDx=0;exitDy=0;entryX=0;entryY=0.5;entryDx=0;entryDy=0;" parent="1" source="saFJeLpI3H_wUORphgzt-37" target="saFJeLpI3H_wUORphgzt-36" edge="1">
          <mxGeometry width="50" height="50" relative="1" as="geometry">
            <mxPoint x="486" y="430" as="sourcePoint" />
            <mxPoint x="346" y="420" as="targetPoint" />
          </mxGeometry>
        </mxCell>
        <mxCell id="saFJeLpI3H_wUORphgzt-39" value="" style="endArrow=classic;html=1;rounded=0;exitX=0.5;exitY=1;exitDx=0;exitDy=0;entryX=0.5;entryY=0;entryDx=0;entryDy=0;" parent="1" source="saFJeLpI3H_wUORphgzt-37" target="saFJeLpI3H_wUORphgzt-43" edge="1">
          <mxGeometry width="50" height="50" relative="1" as="geometry">
            <mxPoint x="486" y="600" as="sourcePoint" />
            <mxPoint x="236" y="540" as="targetPoint" />
          </mxGeometry>
        </mxCell>
        <mxCell id="saFJeLpI3H_wUORphgzt-40" value="No" style="text;html=1;align=center;verticalAlign=middle;whiteSpace=wrap;rounded=0;" parent="1" vertex="1">
          <mxGeometry x="176" y="460" width="60" height="30" as="geometry" />
        </mxCell>
        <mxCell id="saFJeLpI3H_wUORphgzt-41" value="Yes" style="text;html=1;align=center;verticalAlign=middle;whiteSpace=wrap;rounded=0;" parent="1" vertex="1">
          <mxGeometry x="276" y="390" width="60" height="30" as="geometry" />
        </mxCell>
        <mxCell id="saFJeLpI3H_wUORphgzt-42" value="" style="endArrow=classic;html=1;rounded=0;exitX=0.5;exitY=1;exitDx=0;exitDy=0;" parent="1" source="saFJeLpI3H_wUORphgzt-36" edge="1">
          <mxGeometry width="50" height="50" relative="1" as="geometry">
            <mxPoint x="486" y="600" as="sourcePoint" />
            <mxPoint x="436" y="500" as="targetPoint" />
          </mxGeometry>
        </mxCell>
        <mxCell id="saFJeLpI3H_wUORphgzt-43" value="&amp;nbsp;&lt;span style=&quot;background-color: initial;&quot;&gt;sampleSignalDCF77()&lt;/span&gt;" style="rounded=0;whiteSpace=wrap;html=1;" parent="1" vertex="1">
          <mxGeometry x="176" y="550" width="120" height="60" as="geometry" />
        </mxCell>
        <mxCell id="saFJeLpI3H_wUORphgzt-54" value="" style="endArrow=classic;html=1;rounded=0;exitX=0.5;exitY=1;exitDx=0;exitDy=0;" parent="1" source="saFJeLpI3H_wUORphgzt-43" edge="1">
          <mxGeometry width="50" height="50" relative="1" as="geometry">
            <mxPoint x="486" y="650" as="sourcePoint" />
            <mxPoint x="236" y="660" as="targetPoint" />
          </mxGeometry>
        </mxCell>
      </root>
    </mxGraphModel>
  </diagram>
</mxfile>
